<?xml version="1.0" encoding="UTF-8"?><svg id="Layer_2" xmlns="http://www.w3.org/2000/svg" viewBox="0 0 128 119.69"><defs><style>.cls-1{stroke-width:3px;}.cls-1,.cls-2{fill:none;stroke:#00979d;stroke-miterlimit:10;}.cls-3{fill:#00979d;}.cls-2{stroke-width:2px;}</style></defs><g id="Layer_1-2"><path class="cls-3" d="m65.77,118.82h-4.02c-.19-.03-.38-.09-.57-.09-3.96-.13-7.88-.66-11.71-1.58-10.51-2.5-19.69-7.44-27.41-15-1.01-.98-1.96-2.06-2.94-3.1-.22-.22-.38-.32-.63-.09-.13.09-.25.16-.38.25-3.89,2.47-7.82,4.91-11.97,7-1.42.73-2.91,1.3-4.37,1.9-.35.16-.76.19-1.14.19-.51,0-.73-.28-.57-.76.09-.38.25-.73.47-1.04.6-.82,1.23-1.68,1.9-2.44,2.75-3.1,5.79-5.89,8.83-8.64.85-.76,1.71-1.52,2.56-2.28q.44-.38.13-.89c-.09-.16-.22-.32-.32-.51-2.09-3.29-3.8-6.77-5.16-10.41-2.18-5.86-3.39-11.93-3.67-18.2-.25-4.81.06-9.59.95-14.34,1.74-9.15,5.41-17.44,11.08-24.82,4.94-6.46,11.02-11.62,18.14-15.48C43.42,3.88,52.47,1.6,62.06,1.28c4.27-.13,8.55.16,12.76.89,5.79.98,11.33,2.79,16.62,5.41,6.62,3.29,12.35,7.76,17.25,13.26q.41.47.95.13c1.58-.98,3.13-1.96,4.75-2.94,3.17-1.9,6.33-3.8,9.72-5.32.79-.35,1.65-.63,2.5-.92.47-.16.98-.22,1.39.19v.38c-.44,1.08-1.11,1.99-1.87,2.85-.6.7-1.17,1.36-1.8,2.03-3.1,3.26-6.43,6.27-9.78,9.24q-.85.73-.22,1.71c2.12,3.32,3.86,6.84,5.22,10.54,2.09,5.63,3.26,11.43,3.58,17.41.22,3.86.09,7.72-.41,11.55-.7,5.48-2.12,10.73-4.31,15.8-2.47,5.79-5.79,11.05-9.97,15.73-4.84,5.44-10.54,9.81-17.06,13.07-7.76,3.89-15.99,5.92-24.63,6.33-.35.09-.66.16-.98.19ZM25.41,60.76c.16,1.65.25,3.32.44,4.97.54,4.62,1.9,9.02,3.93,13.2q.35.73,1.01.22c6.96-5.48,13.96-10.98,20.92-16.43.44-.35.6-.63.57-1.27-.28-4.15,1.01-7.69,4.12-10.51,3.29-2.98,8.33-3.74,12.22-1.87.44.22.73.16,1.08-.13,3.96-2.94,7.95-5.89,11.93-8.8,3.32-2.41,6.71-4.75,10.07-7.09.47-.32.54-.25.06-.73-.66-.7-1.33-1.42-2.06-2.09-4.56-4.31-9.88-7.28-15.92-8.96-4.87-1.33-9.81-1.65-14.81-1.08-3.77.41-7.44,1.36-10.89,2.91-9.02,4.05-15.35,10.76-19.25,19.82-2.44,5.63-3.42,11.62-3.42,17.82Zm76.76-.41c-.16-2.06-.28-4.15-.54-6.17-.54-4.46-1.9-8.71-3.89-12.76-.38-.76-.25-.76-.95-.22-6.93,5.44-13.83,10.89-20.8,16.33-.6.47-1.01.89-.73,1.68.03.13.03.25.03.38,0,3.86-1.27,7.19-4.15,9.81-3.23,2.94-8.33,3.77-12.22,1.93-.47-.22-.76-.16-1.14.13-3.23,2.41-6.43,4.81-9.69,7.15-4.05,2.94-8.17,5.79-12.25,8.71q-.47.35-.16.7c4.02,4.43,8.8,7.72,14.37,9.88,4.24,1.65,8.61,2.47,13.14,2.53,4.31.06,8.55-.44,12.63-1.8,10.83-3.58,18.36-10.79,22.85-21.21,2.37-5.41,3.42-11.14,3.48-17.06Z"/><circle class="cls-1" cx="63.74" cy="59.85" r="39.54"/><circle class="cls-2" cx="63.74" cy="59.85" r="12"/><circle class="cls-2" cx="63.74" cy="59.85" r="58.85"/></g></svg>